<?xml version="1.0" standalone="no"?>
<!DOCTYPE svg PUBLIC "-//W3C//DTD SVG 20010904//EN"
 "http://www.w3.org/TR/2001/REC-SVG-20010904/DTD/svg10.dtd">
<svg version="1.0" xmlns="http://www.w3.org/2000/svg"
 width="128.000000pt" height="128.000000pt" viewBox="0 0 128.000000 128.000000"
 preserveAspectRatio="xMidYMid meet">

<g transform="translate(0.000000,128.000000) scale(0.100000,-0.100000)"
fill="#000000" stroke="none">
<path d="M965 1250 l-29 -30 89 -90 90 -90 -461 0 -460 0 -55 -27 c-35 -18
-64 -43 -84 -71 -29 -42 -30 -48 -33 -173 l-4 -129 40 0 39 0 5 108 c4 93 8
114 27 141 44 62 36 61 528 61 l448 0 -85 -85 -85 -85 33 -32 32 -33 130 130
c81 81 130 137 130 150 0 13 -50 70 -133 153 l-133 133 -29 -31z"/>
<path d="M1170 529 c0 -96 -3 -115 -21 -140 -42 -60 -36 -59 -531 -59 l-453 0
88 88 87 88 -30 29 -30 29 -130 -129 c-81 -81 -130 -137 -130 -150 0 -13 50
-70 133 -153 l133 -133 29 31 29 30 -89 90 -90 90 462 0 461 0 53 28 c36 18
64 43 84 72 29 43 30 50 33 173 l4 127 -46 0 -46 0 0 -111z"/>
</g>
</svg>
